<svg width="24" height="24" viewBox="0 0 24 24" fill="none" xmlns="http://www.w3.org/2000/svg">
<path d="M21.3064 8.89941H2.68951C2.30871 8.89941 2 9.20812 2 9.58893V11.6575C2 12.0383 2.30871 12.347 2.68951 12.347H21.3064C21.6872 12.347 21.9959 12.0383 21.9959 11.6575V9.58893C21.9959 9.20812 21.6872 8.89941 21.3064 8.89941Z" fill="#F0C419"/>
<path d="M17.7946 21.9999H6.20112C5.36601 21.9999 4.65104 21.4012 4.50422 20.5791L3.03418 12.3467H20.9615L19.4915 20.5791C19.3447 21.4012 18.6297 21.9999 17.7946 21.9999Z" fill="#F29C1F"/>
<path d="M19.0207 8.89923L12.7875 2.36953L12.7462 2.32471L11.998 4.5346L16.1627 8.89923H19.0207Z" fill="#C4C8D4"/>
<path d="M4.41336 10.9678C4.60376 10.9678 4.75812 10.8135 4.75812 10.6231C4.75812 10.4327 4.60376 10.2783 4.41336 10.2783C4.22296 10.2783 4.0686 10.4327 4.0686 10.6231C4.0686 10.8135 4.22296 10.9678 4.41336 10.9678Z" fill="#F29C1F"/>
<path d="M6.48196 10.9678C6.67237 10.9678 6.82672 10.8135 6.82672 10.6231C6.82672 10.4327 6.67237 10.2783 6.48196 10.2783C6.29156 10.2783 6.13721 10.4327 6.13721 10.6231C6.13721 10.8135 6.29156 10.9678 6.48196 10.9678Z" fill="#F29C1F"/>
<path d="M17.5142 10.9678C17.7046 10.9678 17.8589 10.8135 17.8589 10.6231C17.8589 10.4327 17.7046 10.2783 17.5142 10.2783C17.3238 10.2783 17.1694 10.4327 17.1694 10.6231C17.1694 10.8135 17.3238 10.9678 17.5142 10.9678Z" fill="#F29C1F"/>
<path d="M19.5826 10.9678C19.773 10.9678 19.9273 10.8135 19.9273 10.6231C19.9273 10.4327 19.773 10.2783 19.5826 10.2783C19.3921 10.2783 19.2378 10.4327 19.2378 10.6231C19.2378 10.8135 19.3921 10.9678 19.5826 10.9678Z" fill="#F29C1F"/>
<path d="M12.6874 14.7598C12.6874 14.379 12.3787 14.0703 11.9979 14.0703C11.6171 14.0703 11.3083 14.379 11.3083 14.7598V19.5864C11.3083 19.9672 11.6171 20.2759 11.9979 20.2759C12.3787 20.2759 12.6874 19.9672 12.6874 19.5864V14.7598Z" fill="#D25627"/>
<path d="M16.8243 14.7598C16.8243 14.379 16.5156 14.0703 16.1348 14.0703C15.754 14.0703 15.4453 14.379 15.4453 14.7598V19.5864C15.4453 19.9672 15.754 20.2759 16.1348 20.2759C16.5156 20.2759 16.8243 19.9672 16.8243 19.5864V14.7598Z" fill="#D25627"/>
<path d="M8.55042 14.7598C8.55042 14.379 8.24171 14.0703 7.8609 14.0703C7.48009 14.0703 7.17139 14.379 7.17139 14.7598V19.5864C7.17139 19.9672 7.48009 20.2759 7.8609 20.2759C8.24171 20.2759 8.55042 19.9672 8.55042 19.5864V14.7598Z" fill="#D25627"/>
<path d="M7.83313 8.89935L11.9978 4.53472L12.7459 3.75212C13.1279 3.35301 13.1279 2.72394 12.7459 2.32483C12.5523 2.11762 12.2814 2 11.9978 2C11.7142 2 11.4433 2.11762 11.2497 2.32483L4.9751 8.89935H7.83313Z" fill="#E1E3EA"/>
</svg>
